# xmcd
#
# Track frame offsets: 
#        150
#        10911
#        38673
#        56983
#        75738
#        89589
#        123328
#        143063
#        163127
#        187802
#        213675
#        253139
#
# Disc length: 3546 seconds
#
# Revision: 1
# Processed by: cddbd v1.5.2PL0 Copyright (c) Steve Scherf et al.
# Submitted via: ExactAudioCopyFreeDBPlugin 1.0
#
DISCID=a80dd80c
DTITLE=Ida Jenshus - Someone to love
DYEAR=2012
DGENRE=Country
TTITLE0=Once Upon A Time (Part One)
TTITLE1=Not For Love Anymore
TTITLE2=Days Of Nothing
TTITLE3=Someone To Love
TTITLE4=Tender Leaves
TTITLE5=Only Human
TTITLE6=The Gap
TTITLE7=If Today Was Off My Mind
TTITLE8=Marie (What Happened to the Music?)
TTITLE9=Loneliest Time Of The Year
TTITLE10=Coming Down Again
TTITLE11=Once Upon A Time (Part Two)
EXTD=
EXTT0=
EXTT1=
EXTT2=
EXTT3=
EXTT4=
EXTT5=
EXTT6=
EXTT7=
EXTT8=
EXTT9=
EXTT10=
EXTT11=
PLAYORDER=
